<svg id="Layer_1" data-name="Layer 1" xmlns="http://www.w3.org/2000/svg" viewBox="0 0 85.61 403.15"><defs><style>.cls-1{fill:#414042;}</style></defs><path class="cls-1" d="M83.58,153.2c-6.6-15.7-21.7-9.6-28.8-7.8s-.7-11.4-.1-16.3-3.6-8.4-5.4-13.8,0-84.3,0-96.3-6.5-12.6-6.5-12.6-6.5.6-6.5,12.6,1.8,90.9,0,96.3-6,9-5.4,13.8,7.1,18.1-.1,16.3S8.58,137.6,2,153.2s4.5,23.8,15.1,24.4c3.6,1.2-2.4,9.6,2.4,15.1s13.2.9,15.1-1.5c0,0,2.1,14.7-3.3,24.4s3.6,106.9,3.3,113.5-6.3,7.5-6.3,13.2c0,3.1,1.7,6.9,3.3,9.8a24.5,24.5,0,1,0,22.4,0c1.6-2.9,3.3-6.7,3.3-9.8,0-5.7-6-6.6-6.3-13.2s8.7-103.9,3.3-113.5S51,191.2,51,191.2c1.8,2.4,10.2,6.9,15.1,1.5s-1.2-13.8,2.4-15.1C79.08,177,90.28,168.9,83.58,153.2Zm-58.8,35.9c-2-2-.2-6.5,2.3-9.5s-.5-7.7-6.8-7.7-11.9-5.6-11.5-11.3c1.1-17.2,24.2-10.4,26.9,1.6C40.78,184.2,26.78,191.2,24.78,189.1Zm18,195.6a10.8,10.8,0,1,1,10.8-10.8A10.76,10.76,0,0,1,42.78,384.7ZM65.38,172c-6.3,0-9.3,4.7-6.8,7.7s4.3,7.5,2.3,9.5-16-5-10.8-26.9c2.7-12,25.7-18.7,26.9-1.6C77.28,166.3,71.68,172,65.38,172Z"/><rect class="cls-1" x="31.12" y="357.15" width="31.85" height="31.85"/></svg>