<svg id="Layer_1" data-name="Layer 1" xmlns="http://www.w3.org/2000/svg" viewBox="0 0 90.35 302.1"><defs><style>.cls-1{fill:#414042;}</style></defs><path class="cls-1" d="M90.28,133c-1.4-19-24.5-26.2-34.8-13.5-5,2.3-5.9-10.4-1.4-17.6s2.3-12.6-1.8-15.8,1.2-82.2-7.1-81.7c-8.3-.5-3,78.6-7.1,81.7s-6.3,8.6-1.8,15.8,3.6,19.9-1.4,17.6C24.68,106.9,1.48,114.1.08,133s16.3,20.8,14,23-5.4,14.9,4.4,19,16.9-5.4,18.2-1.8-4.1,19.9-2.8,34.8,9.1,24.4,6.5,23.9c-4.7,0-9.2,11.3-4.7,14.9a8.39,8.39,0,0,1,2.4,3,26.6,26.6,0,1,0,13.8,0,8.39,8.39,0,0,1,2.4-3c4.5-3.6,0-14.9-4.7-14.9-2.6.5,5.2-9,6.5-23.9s-4.1-31.2-2.8-34.8,8.4,5.9,18.2,1.8,6.6-16.7,4.4-19C74,153.7,91.58,151.9,90.28,133Zm-64.4,38.3c-6.4.5-9.9-7.7-3-13.5s-.2-16.7-.2-16.7,1.9,5.4-6.3,6.3-9.7-10.7-9.4-17c.3-5.2,7.7-9.6,11.6-9.6s16.9,1.4,20,22.1S32.28,170.9,25.88,171.3Zm35.5,104.2a16.1,16.1,0,1,1-16.1-16.1A16.09,16.09,0,0,1,61.38,275.5Zm12.7-128.1c-8.2-.9-6.3-6.3-6.3-6.3s-7,10.8-.2,16.7,3.4,14-3,13.5-15.9-7.7-12.7-28.4,16.1-22.1,20-22.1,11.3,4.4,11.6,9.6C83.78,136.7,82.38,148.3,74.08,147.4Z"/><rect class="cls-1" x="29.18" y="259.4" width="34.76" height="34.76"/></svg>