<svg id="Layer_1" data-name="Layer 1" xmlns="http://www.w3.org/2000/svg" viewBox="0 0 85.72 405.85"><defs><style>.cls-1{fill:#414042;}</style></defs><path class="cls-1" d="M85.3,158.05c3.6-19.9-17.2-26.6-17.2-26.6,9.5-5,4.1-16.7,0-16.7s-8.1,1.8-14.9-2.7-3.2-63.2-3.2-84-5-22.3-5-22.3-5,1.5-5,22.3,3.6,79.5-3.2,84-10.8,2.7-14.9,2.7-9.5,11.7,0,16.7c0,0-20.8,6.8-17.2,26.6s18.5,23.5,27.5,20.3c0,0-8.6,20.8,6.8,28.9,5,5.4.5,41.1-6.8,56.9-6.4,14,7,55.2,4.9,73.4a34.6,34.6,0,1,0,15.6,0c-2.1-18.2,11.2-59.5,4.9-73.4-7.2-15.8-11.7-51.5-6.8-56.9,15.4-8.1,6.8-28.9,6.8-28.9C66.8,181.55,81.7,178,85.3,158.05ZM45.1,119c4,4.7,9.3,9.8,14,10.7a140.18,140.18,0,0,0-14,13.2,140.18,140.18,0,0,0-14-13.2C35.8,128.65,41.1,123.65,45.1,119Zm15.2,252.4A15.3,15.3,0,1,1,45,356.05,15.3,15.3,0,0,1,60.3,371.35Zm-5.7-201.8s-3.8,1.8-2.7,8.1c1,5.4,1.6,21.2-6.8,24.8-8.3-3.6-7.7-19.4-6.8-24.8,1.1-6.3-2.7-8.1-2.7-8.1-13.1,5-23-5.4-23.9-15.1s10.4-15.8,19.4-13.1c5.4,1.6,10.7,7.5,14,11.9,3.3-4.4,8.6-10.3,14-11.9,9-2.7,20.3,3.4,19.4,13.1S67.7,174.55,54.6,169.55Z"/><rect class="cls-1" x="23" y="352.4" width="48.99" height="40.36"/></svg>